<svg xmlns="http://www.w3.org/2000/svg" width="181.041" height="51.291" viewBox="0 0 181.041 51.291">
  <g id="logo_dashbord" transform="translate(-193.627 -190.142)">
    <g id="Group_3662" data-name="Group 3662" transform="translate(193.626 190.142)">
      <path id="Path_3180" data-name="Path 3180" d="M269,682.547c.058.117.1.233.156.35h.972q34.6-.117,69.184-.214,34.368-.116,68.756-.292,19.9-.058,39.814-.1a3.6,3.6,0,0,0,1.381-.117c.311-.136.506-.564.759-.856-.292-.194-.564-.545-.856-.583a24.752,24.752,0,0,0-2.684-.058c-30.478-.253-61,.856-91.435-1.673a219.2,219.2,0,0,1-25.441-3.248c-8.558-1.751-16.96-3.968-24.8-7.877-4.785-2.373-9.317-5.29-13.965-7.955-1.789-1.031-2.237-.875-3.112.972a49.813,49.813,0,0,1-14.879,18.692C271.587,680.582,270.284,681.574,269,682.547Zm10.7,9.336c-1.809,1.945-1.77,1.926-.856,3.831a24.111,24.111,0,0,1,.992,2.723c-2.82,1.439-4.688,1.031-5.621-1.362-.311,1.634-.934,3.131.019,4.376.914,1.206,2.412.739,3.715.583.428-.039.817-.194,1.245-.253a43.227,43.227,0,0,1,4.454-.486q9.044-.088,18.069,0c1.362.019,1.828-.389,1.789-1.77-.078-2.548-.408-5.174.136-7.586.428-1.867-.447-3.073-.7-4.649-1.887,1.264-1.77,1.245-1.692,3.131.117,2.529.019,5.037.019,7.7-1.07,0-2-.058-2.937.02-.972.078-1.361-.214-1.575-1.225a33.269,33.269,0,0,0-1.478-4.3c-1.964,2.159-1.945,2.159-.934,4.2.175.35.272.739.447,1.206H287.5v-10.73c-1.42.837-2.217,1.673-2.1,3.326.175,2.47.039,4.94.039,7.527-.973,0-1.712-.058-2.451.019-1.109.117-1.5-.272-1.712-1.4a51.017,51.017,0,0,0-1.576-4.881Zm46.622,9.53a22.588,22.588,0,0,0,4.96-.486,6.059,6.059,0,0,1,4.707.409c.35.156.7.272,1.031.447.953.506,1.439.117,1.828-.8,1.653-3.754-.681-9.472-4.532-10.911a1.319,1.319,0,0,0-1.225.194c-.642.875-1.75,1.79-.233,3a5.78,5.78,0,0,0-3.073,4.746h-3.637V687.2c-1.342.856-2.159,1.614-2.081,3.209.136,3.384.058,6.768.039,10.153a2.334,2.334,0,0,1-.389,1.42c-.856,1.031-4.085,1.342-5.485.622-1.186-.6-1.556-1.984-1.07-4.006.117-.525.233-1.07.35-1.595-.214-.039-.447-.078-.661-.117a43.63,43.63,0,0,0-1.225,5.368,3.6,3.6,0,0,0,2.781,3.773c2.893.715,7.426-.918,7.912-4.614Zm4.4-30.731c0-3.656.233-7.138-.078-10.581-.233-2.7-2.509-4.279-5.388-4.415-3.462-.155-6.049,1.109-6.477,3.91-.545,3.618-.467,7.333-.661,11.067h3.618v-3.248h5.718c.058,1.128.1,2.178.156,3.248,1.14.019,2.152.019,3.1.019Zm57.125-.856c2.665,1.595,4.707,1.42,6.574-.564,1.887-2,2.3-5.543.681-7.683a7.222,7.222,0,0,0-2.7-2.12c-1.6-.759-3.19-.136-4.8.875v-5.1h-3.151v15.619c1.191-.443,2.649.763,3.388-1.027Zm55.18-9.511c-3.054-1.653-5.368-1.381-7.138.681a6.225,6.225,0,0,0-.136,7.7,5.758,5.758,0,0,0,2.918,2c1.361.214,2.82-.331,4.318-.545.253.759.992.933,3.151.408V655.2H443c.019,1.692.019,3.306.019,5.115Zm-70.253-.972c-1.206.058-2.178.1-3.151.156-.35.019-.739.253-1.011.136a5.391,5.391,0,0,0-6.516,1.828,6.617,6.617,0,0,0,.019,7.177c1.5,2.1,3.871,2.742,6.516,1.789a1.68,1.68,0,0,1,.759-.117c1.07.175,2.139.389,3.4.622v-9.978c-.024-.427-.024-.893-.024-1.613Zm36.624,0c-1.109.058-2.081.1-3.054.156-.389.019-.817.233-1.128.1a5.41,5.41,0,0,0-6.321,1.712,6.566,6.566,0,0,0-.039,7.411,5.274,5.274,0,0,0,6.282,1.789,1.662,1.662,0,0,1,.9-.194c1.089.175,2.159.408,3.365.661Zm-64.769,11.378c0-2.315-.058-4.474.019-6.613.136-4.435-4.182-6.224-7.021-3.929-.058.039-.175,0-.447-.039v-4.9H334.1V670.7h3.151v-3.287a32.644,32.644,0,0,1,.078-3.384,2.178,2.178,0,0,1,2.353-1.964c1.264.1,1.575,1.031,1.673,2.081a16.384,16.384,0,0,1,.019,1.692v4.9c1.166-.017,2.1-.017,3.248-.017Zm87.506-11.281c-1.05,0-1.984-.019-2.9,0-.467,0-.992.233-1.4.078a5.544,5.544,0,0,0-6.282,1.945,6.452,6.452,0,0,0,.1,7.274,5.263,5.263,0,0,0,6.3,1.75,1.98,1.98,0,0,1,.895-.233c1.07.194,2.1.447,3.307.72-.028-4.046-.028-7.7-.028-11.534ZM418.3,667.376c-1.984,1.128-2.626.759-2.626-1.323V656.017a16.93,16.93,0,0,0-2.49.039c-.311.058-.8.525-.8.817-.039,3.521-.039,7.06.039,10.581a3.4,3.4,0,0,0,2.626,3.306,4.067,4.067,0,0,0,4.357-1.245C419.057,668.757,418.707,668.115,418.3,667.376Zm-42.537-11.281c0,3.968-.078,7.819.039,11.651a3.2,3.2,0,0,0,2.587,3,4.077,4.077,0,0,0,4.357-1.264c-.389-.7-.758-1.342-1.109-1.984-2.217.973-2.665.661-2.665-1.77V656.1Zm-28.2-.019c0,4.046-.136,8.033.058,12,.1,1.848,2.12,3.034,4.085,2.84,2.431-.234,2.956-1.225,1.77-3.268a.641.641,0,0,0-.233-.136c-1.964.953-2.509.622-2.509-1.556v-9.861c-1.192-.02-2.164-.02-3.175-.02Zm-40.884,46.077c1.439-1.673,2.3-3.034,2.178-4.96-.156-2.7-.039-5.446-.039-8.169,0-.486-.039-.992-.058-1.478-.117-.039-.233-.078-.37-.117-.564.934-1.575,1.867-1.634,2.82-.2,3.832-.081,7.663-.081,11.9Zm36.1,0c1.634-.8,2.256-1.79,2.12-3.365-.136-1.77-.039-3.559-.039-5.349V690.6c-.156-.058-.292-.117-.447-.175-.545.622-1.536,1.245-1.575,1.887-.161,3.208-.064,6.436-.064,9.84Zm-50.706.856c-.35.856-.642,1.537-.973,2.315.953.408,1.809.759,2.762,1.167.37-.817.7-1.517,1.07-2.314Zm50.064-14.14c-.039-.156-.058-.311-.1-.467.759-.272,1.517-.544,2.276-.836-.078-.214-.136-.428-.214-.642a8.027,8.027,0,0,0-1.848.467c-1.614.875-.895,2.276-.661,3.54,2.937-1.342,2.937-1.342,3.073-2.062Z" transform="translate(-269 -655.2)" fill="#414141"/>
      <path id="Path_3181" data-name="Path 3181" d="M269,699.49c1.284-.992,2.587-1.964,3.871-2.956a49.624,49.624,0,0,0,14.879-18.691c.875-1.848,1.323-2,3.112-.973,4.649,2.665,9.161,5.563,13.965,7.955,7.838,3.89,16.26,6.127,24.8,7.877a215.524,215.524,0,0,0,25.441,3.248c30.439,2.529,60.956,1.439,91.434,1.673.895,0,1.789-.02,2.684.058.311.039.564.37.856.584-.253.292-.447.739-.759.856a3.6,3.6,0,0,1-1.381.117c-13.265.039-26.549.039-39.814.1q-34.368.117-68.756.292-34.6.116-69.184.214h-.972Zm16.338-4.863h24.935c-6.438-2.587-12.973-5.212-19.528-7.858Q288.207,690.475,285.338,694.627Z" transform="translate(-269 -672.143)" fill="#ffb909"/>
      <path id="Path_3182" data-name="Path 3182" d="M299.1,824.71a43.982,43.982,0,0,1,1.536,4.862c.214,1.128.622,1.517,1.712,1.4.739-.078,1.5-.02,2.451-.02,0-2.567.117-5.057-.039-7.527-.117-1.653.681-2.49,2.1-3.326v10.736h7.294c-.175-.467-.272-.856-.447-1.206-1.011-2.042-1.031-2.042.934-4.2a33.27,33.27,0,0,1,1.478,4.3c.214,1.031.622,1.3,1.575,1.225.934-.078,1.867-.019,2.937-.019,0-2.645.078-5.174-.019-7.7-.078-1.887-.2-1.867,1.692-3.131.253,1.575,1.109,2.8.7,4.648-.545,2.412-.214,5.057-.136,7.585.039,1.362-.428,1.77-1.789,1.77q-9.044-.088-18.069,0a38.008,38.008,0,0,0-4.454.486c-.408.058-.817.214-1.245.253-1.3.136-2.8.622-3.715-.583-.953-1.264-.331-2.742-.02-4.376.934,2.412,2.8,2.82,5.621,1.361a24.082,24.082,0,0,0-.992-2.723C297.31,826.635,297.291,826.655,299.1,824.71Z" transform="translate(-288.402 -788.027)" fill="#fff"/>
      <path id="Path_3183" data-name="Path 3183" d="M519.237,833.757c-.506,3.7-5.018,5.329-7.936,4.571a3.6,3.6,0,0,1-2.781-3.773,43.652,43.652,0,0,1,1.225-5.368c.214.039.447.078.661.117-.117.525-.214,1.07-.35,1.595-.486,2.023-.117,3.4,1.07,4.007,1.4.72,4.629.408,5.485-.622a2.333,2.333,0,0,0,.389-1.42c.039-3.384.117-6.769-.039-10.153-.058-1.614.739-2.353,2.081-3.209v10.814h3.637a5.738,5.738,0,0,1,3.073-4.746c-1.517-1.206-.408-2.1.233-3a1.319,1.319,0,0,1,1.225-.2c3.851,1.459,6.185,7.158,4.532,10.911-.389.9-.875,1.284-1.828.8-.331-.175-.7-.292-1.031-.447a6.058,6.058,0,0,0-4.707-.408,20.067,20.067,0,0,1-4.939.526Zm11.67-2.159a5.708,5.708,0,0,0-2.256-4.668c-.331,1.264-.622,2.412-.933,3.637.953.311,1.964.642,3.189,1.033Zm-7.235-1.867c.836.194,1.323.35,1.809.408.7.1,1.537.194,1.653-.758a11.215,11.215,0,0,0-.214-2.256,7.989,7.989,0,0,0-2.062.817C524.391,828.272,524.158,828.953,523.672,829.731Z" transform="translate(-461.918 -787.544)" fill="#fff"/>
      <path id="Path_3184" data-name="Path 3184" d="M534.1,672.724h-3.112c-.058-1.07-.1-2.12-.155-3.248h-5.719v3.248H521.5c.194-3.734.117-7.449.661-11.067.428-2.8,3.015-4.065,6.477-3.909,2.879.136,5.135,1.712,5.388,4.415C534.337,665.586,534.1,669.087,534.1,672.724Zm-8.986-6.477h5.738c.058-1.848.428-3.715-1.264-5a2.544,2.544,0,0,0-3.17-.019c-1.728,1.265-1.3,3.132-1.3,5.019Z" transform="translate(-472.389 -657.241)" fill="#fff"/>
      <path id="Path_3185" data-name="Path 3185" d="M865.823,669.907c-.72,1.789-2.2.584-3.423,1.011V655.3h3.151v5.1c1.634-1.011,3.209-1.615,4.8-.875a7.381,7.381,0,0,1,2.7,2.12c1.614,2.14,1.206,5.679-.681,7.683C870.53,671.327,868.488,671.5,865.823,669.907Zm4.921-4.668a2.9,2.9,0,0,0-2.529-3.171c-1.5-.039-2.626,1.245-2.645,3.034a2.813,2.813,0,0,0,2.568,3.093,2.85,2.85,0,0,0,2.606-2.956Z" transform="translate(-746.984 -655.281)" fill="#fff"/>
      <path id="Path_3186" data-name="Path 3186" d="M1128.4,660.316V655.2h3.132v15.365c-2.179.525-2.9.35-3.151-.408-1.479.233-2.957.778-4.318.545a5.494,5.494,0,0,1-2.917-2,6.225,6.225,0,0,1,.136-7.7C1123.03,658.934,1125.35,658.662,1128.4,660.316Zm-.019,4.707c-.039-1.789-1.147-3.073-2.645-3.015a2.932,2.932,0,0,0-2.568,3.151,2.882,2.882,0,0,0,2.762,2.956,2.827,2.827,0,0,0,2.45-3.093Z" transform="translate(-954.381 -655.2)" fill="#fff"/>
      <path id="Path_3187" data-name="Path 3187" d="M753.858,676.11v11.611c-1.245-.233-2.314-.447-3.4-.622a1.721,1.721,0,0,0-.759.117c-2.645.953-5.018.311-6.516-1.789a6.617,6.617,0,0,1-.02-7.177,5.416,5.416,0,0,1,6.516-1.828c.292.1.681-.117,1.011-.136C751.679,676.207,752.652,676.169,753.858,676.11Zm-3.306,5.815c.02-1.789-1.05-3.151-2.509-3.151a2.86,2.86,0,0,0-2.665,3.053A2.891,2.891,0,0,0,748,684.921a2.767,2.767,0,0,0,2.551-2.995Z" transform="translate(-650.092 -671.967)" fill="#fff"/>
      <path id="Path_3188" data-name="Path 3188" d="M942.48,675.826v11.612c-1.206-.233-2.276-.486-3.365-.661a2.188,2.188,0,0,0-.9.2,5.274,5.274,0,0,1-6.282-1.789,6.565,6.565,0,0,1,.039-7.41,5.409,5.409,0,0,1,6.321-1.712c.311.117.739-.078,1.128-.1C940.4,675.923,941.371,675.884,942.48,675.826Zm-3.209,5.679c-.019-1.731-1.089-3.034-2.489-3.034a3.1,3.1,0,0,0,.078,6.146c1.4-.058,2.43-1.4,2.41-3.112Z" transform="translate(-802.09 -671.683)" fill="#fff"/>
      <path id="Path_3189" data-name="Path 3189" d="M614.142,670.8h-3.268v-4.9a16.436,16.436,0,0,0-.019-1.692c-.1-1.05-.408-1.964-1.673-2.081a2.178,2.178,0,0,0-2.354,1.964,28.007,28.007,0,0,0-.078,3.385v3.287H603.6V655.3h3.073v4.9c.272.02.408.078.447.039,2.84-2.276,7.177-.506,7.022,3.929C614.084,666.328,614.142,668.487,614.142,670.8Z" transform="translate(-538.52 -655.281)" fill="#fff"/>
      <path id="Path_3190" data-name="Path 3190" d="M1059.38,676.1v11.55c-1.186-.272-2.236-.525-3.306-.72a1.979,1.979,0,0,0-.9.233,5.315,5.315,0,0,1-6.3-1.75,6.488,6.488,0,0,1-.1-7.274,5.515,5.515,0,0,1,6.282-1.945c.408.136.934-.078,1.4-.078C1057.39,676.078,1058.33,676.1,1059.38,676.1Zm-3.189,5.641c0-1.809-1.09-3.112-2.568-3.093a3.113,3.113,0,0,0,.1,6.146c1.437-.042,2.467-1.326,2.467-3.057Z" transform="translate(-896.25 -671.857)" fill="#fff"/>
      <path id="Path_3191" data-name="Path 3191" d="M1012.06,670.573c.389.739.739,1.4,1.128,2.12a4.077,4.077,0,0,1-4.357,1.245,3.371,3.371,0,0,1-2.626-3.307c-.1-3.52-.078-7.06-.039-10.581,0-.292.486-.758.8-.817a17.015,17.015,0,0,1,2.49-.039V669.23C1009.46,671.331,1010.08,671.7,1012.06,670.573Z" transform="translate(-862.763 -658.397)" fill="#fff"/>
      <path id="Path_3192" data-name="Path 3192" d="M817.808,659.8h3.229v9.628c0,2.431.448,2.742,2.665,1.77.35.642.7,1.284,1.109,1.984a4.077,4.077,0,0,1-4.357,1.264,3.2,3.2,0,0,1-2.587-3C817.731,667.6,817.808,663.768,817.808,659.8Z" transform="translate(-711.047 -658.905)" fill="#fff"/>
      <path id="Path_3193" data-name="Path 3193" d="M672.708,659.7h3.17v9.861c0,2.179.564,2.509,2.509,1.556.078.039.2.058.233.136,1.187,2.062.661,3.035-1.77,3.268-1.964.194-4.007-.992-4.084-2.84C672.572,667.713,672.708,663.746,672.708,659.7Z" transform="translate(-594.149 -658.825)" fill="#fff"/>
      <path id="Path_3194" data-name="Path 3194" d="M462.556,835.624c0-4.24-.117-8.072.078-11.9.039-.972,1.05-1.887,1.634-2.82.117.039.233.078.369.116.02.486.058.992.058,1.478,0,2.723-.117,5.446.039,8.169C464.832,832.589,464,833.951,462.556,835.624Z" transform="translate(-424.882 -788.671)" fill="#fff"/>
      <path id="Path_3195" data-name="Path 3195" d="M648.188,848.028c0-3.4-.1-6.632.078-9.842.039-.661,1.031-1.264,1.575-1.887.156.058.292.117.447.175v2.84c0,1.789-.117,3.579.039,5.349C650.445,846.239,649.822,847.231,648.188,848.028Z" transform="translate(-574.415 -801.076)" fill="#fff"/>
      <path id="Path_3196" data-name="Path 3196" d="M383.573,901c1.031.428,1.887.778,2.859,1.167-.37.817-.7,1.517-1.07,2.315-.953-.408-1.789-.759-2.762-1.167C382.931,902.536,383.222,901.856,383.573,901Z" transform="translate(-360.505 -853.192)" fill="#fff"/>
      <path id="Path_3197" data-name="Path 3197" d="M641.324,820.245h2.548c-.155.72-.155.72-3.073,2.062-.233-1.264-.953-2.665.661-3.54a8.032,8.032,0,0,1,1.848-.467c.078.214.136.428.214.642-.759.272-1.517.545-2.276.836a3.908,3.908,0,0,0,.078.467Z" transform="translate(-568.192 -786.577)" fill="#fff"/>
      <path id="Path_3198" data-name="Path 3198" d="M353,738.258c1.906-2.781,3.715-5.388,5.407-7.858,6.555,2.645,13.09,5.271,19.528,7.858Z" transform="translate(-336.662 -715.774)" fill="#414141"/>
      <path id="Path_3199" data-name="Path 3199" d="M610.409,862.287c-1.225-.408-2.237-.72-3.209-1.05.311-1.225.6-2.353.934-3.637a5.736,5.736,0,0,1,2.275,4.687Z" transform="translate(-541.42 -818.233)" fill="#414141"/>
      <path id="Path_3200" data-name="Path 3200" d="M586.5,861.226a7.074,7.074,0,0,1,1.186-1.809,8.771,8.771,0,0,1,2.062-.817,11.233,11.233,0,0,1,.214,2.256c-.117.953-.953.856-1.653.758a13.574,13.574,0,0,1-1.809-.388Z" transform="translate(-524.746 -819.039)" fill="#414141"/>
      <path id="Path_3201" data-name="Path 3201" d="M539.959,678.462c.019-1.867-.408-3.734,1.3-5.018a2.543,2.543,0,0,1,3.17.02c1.673,1.284,1.3,3.131,1.264,5Z" transform="translate(-487.23 -669.457)" fill="#414141"/>
      <path id="Path_3202" data-name="Path 3202" d="M883.87,693.27a2.863,2.863,0,0,1-2.606,2.956,2.813,2.813,0,0,1-2.568-3.093c.039-1.77,1.167-3.054,2.645-3.034a2.884,2.884,0,0,1,2.529,3.171Z" transform="translate(-760.109 -683.311)" fill="#414141"/>
      <path id="Path_3203" data-name="Path 3203" d="M1142.09,693.207a2.628,2.628,0,1,1-5.193.136,2.917,2.917,0,0,1,2.567-3.151C1140.94,690.134,1142.07,691.417,1142.09,693.207Z" transform="translate(-968.09 -683.385)" fill="#414141"/>
      <path id="Path_3204" data-name="Path 3204" d="M764.153,693.27c-.019,1.712-1.109,3-2.528,2.976A2.9,2.9,0,0,1,759,693.154a2.86,2.86,0,0,1,2.665-3.054C763.123,690.119,764.192,691.481,764.153,693.27Z" transform="translate(-663.694 -683.312)" fill="#414141"/>
      <path id="Path_3205" data-name="Path 3205" d="M952.95,693.133c.02,1.712-1.011,3.054-2.412,3.112a3.1,3.1,0,0,1-.078-6.146C951.861,690.119,952.911,691.4,952.95,693.133Z" transform="translate(-815.77 -683.311)" fill="#414141"/>
      <path id="Path_3206" data-name="Path 3206" d="M1070.11,693.192c0,1.731-1.031,3.015-2.451,3.054a3.113,3.113,0,0,1-.1-6.146C1069.03,690.08,1070.11,691.383,1070.11,693.192Z" transform="translate(-910.177 -683.311)" fill="#414141"/>
    </g>
  </g>
</svg>
